<?xml version="1.0" encoding="UTF-8"?>
<!DOCTYPE svg PUBLIC "-//W3C//DTD SVG 1.1//EN" "http://www.w3.org/Graphics/SVG/1.1/DTD/svg11.dtd">
<!-- Creator: CorelDRAW X7 -->
<?xml-stylesheet type="text/css" href="/themes/custom/pharm/css/svg.css" ?>
<svg xmlns="http://www.w3.org/2000/svg" xml:space="preserve" width="5000px" height="5194px" id="logo-w" version="1.1" shape-rendering="geometricPrecision" text-rendering="geometricPrecision" image-rendering="optimizeQuality" fill-rule="evenodd" clip-rule="evenodd"
viewBox="0 0 912 947"
 xmlns:xlink="http://www.w3.org/1999/xlink">
 <a xlink:href="/" style="cursor: pointer" title="Гололовна сторінка">
 <g id="Слой_x0020_1">
  <metadata id="CorelCorpID_0Corel-Layer"/>
  <g id="_604111736">
   <path fill="#FEFEFE" d="M456 148l16 1 15 1 15 2 15 2 15 4 15 4 14 5 14 6 14 6 13 6 13 8 12 8 12 8 12 10 11 9 11 10 10 11 9 11 10 12 8 12 8 12 8 13 6 13 6 14 6 14 5 14 4 15 4 15 2 15 2 15 1 16 1 15 -1 21 -2 22 -4 20 -5 21 -6 19 -8 19 -8 19 -10 17 -11 17 -12 16c-7,8 -13,15 -20,23 -7,7 -15,14 -22,20l-16 13 -17 11 -20 13 -290 0 -21 -13 -17 -11 -15 -13c-8,-6 -15,-13 -22,-20l-14 -15 -12 -16 -12 -17 -10 -17 -9 -18 -9 -18 -6 -20 -6 -20 -5 -20 -2 -21 -2 -21 0 -11 0 -15 2 -16 1 -15 3 -15 4 -15 4 -15 5 -14 5 -14 6 -14 7 -13 8 -13 8 -12 8 -12 9 -12 10 -11 10 -11 11 -10 11 -9 11 -10 12 -8 13 -8 13 -8 13 -6 14 -6 14 -6 14 -5 14 -4 15 -4 15 -2 16 -2 15 -1 16 -1 0 0zm0 15c161,0 292,131 292,292 0,110 -61,206 -151,256l-282 0c-90,-50 -151,-146 -151,-256 0,-161 131,-292 292,-292l0 0z"/>
   <polygon fill="#FEFEFE" points="454,374 454,373 461,367 468,363 475,359 483,356 489,354 497,352 505,352 513,352 520,352 528,353 537,354 544,355 553,357 560,358 569,360 576,362 582,372 584,372 585,372 687,589 681,589 671,589 658,588 643,588 626,587 607,587 589,586 569,586 552,585 534,585 518,584 504,584 494,583 487,583 484,583 480,583 477,585 476,589 480,590 481,591 482,592 481,594 480,595 454,595 428,595 426,594 426,592 426,591 428,590 431,589 430,585 427,583 423,583 420,583 413,583 402,584 389,584 373,585 356,585 338,586 319,586 300,587 281,587 264,588 249,588 236,589 226,589 220,589 322,372 324,372 325,372 332,362 339,360 347,358 355,357 363,355 371,354 379,353 386,352 394,352 402,352 410,353 417,354 425,356 432,359 439,363 445,367 453,373 454,374 454,374 454,370 447,365 441,360 433,356 426,353 418,351 410,349 402,349 394,349 386,349 379,350 370,351 362,352 354,354 347,355 338,357 331,359 329,360 323,369 321,369 320,370 216,590 218,592 220,592 226,592 236,591 249,591 264,591 281,590 300,590 319,589 338,589 356,589 373,588 389,588 402,587 413,587 420,587 424,586 426,586 428,587 424,589 423,592 424,597 428,598 454,598 480,598 484,597 485,592 483,589 480,587 481,586 484,586 487,587 494,587 504,587 518,588 534,588 552,589 569,589 589,589 607,590 626,590 643,591 658,591 671,591 681,592 687,592 690,592 691,590 588,370 586,369 585,369 577,359 577,359 569,357 561,355 553,354 545,352 537,351 529,350 520,349 513,348 505,349 497,349 489,351 481,353 474,356 466,360 459,365 454,370 "/>
   <path fill="#FEFEFE" d="M562 301c-6,26 -48,48 -100,50l0 17 19 2 41 -17c15,-9 32,-19 42,-34 4,-5 6,-11 5,-18 -1,-10 -9,-18 -17,-23 -10,-7 -22,-12 -34,-14 -21,-4 -44,-3 -64,4 -13,5 -25,15 -40,22 -5,4 -12,3 -16,-1l4 -12c6,-15 25,-26 45,-29 17,-6 34,-7 51,-7 23,1 47,8 65,22 14,11 26,28 23,46 -1,11 -8,20 -15,28 -5,6 -12,12 -18,16 -13,8 -26,14 -39,19l46 4c1,-2 3,-3 5,-3 4,0 6,3 6,6 0,2 0,3 -1,4l54 130 0 0 -5 0 -51 -125 0 125 -5 0 0 -125 -52 125 -4 0 0 0 54 -130c0,0 -1,0 -1,-1l-73 0c-9,4 -17,7 -26,11l-3 77c11,6 21,12 27,22 4,7 1,16 -3,22 -3,5 -7,9 -11,12 20,4 34,13 37,24l-111 0c3,-13 25,-24 51,-25l-2 -51 -11 -6c-11,-7 -23,-16 -29,-29 -4,-9 -4,-18 1,-27 7,-14 22,-20 36,-26l0 -4 -99 0c0,1 0,1 0,1l54 130 0 0 -4 0 -53 -125 0 125 -4 0 0 -125 -52 125 -4 0 0 0 54 -130c-1,-1 -2,-2 -2,-4 0,-3 3,-6 6,-6 3,0 5,1 6,3l98 -8 -1 -17c-51,-2 -93,-24 -100,-50l220 0 0 0zm-104 179l-1 45c3,0 6,0 9,0l12 -13c2,-4 4,-10 2,-14 -2,-6 -6,-10 -12,-13l-10 -5 0 0zm-12 -12l-2 -69c-2,1 -3,2 -5,2 -9,4 -21,10 -24,21 -2,6 0,12 4,17 5,9 13,15 21,21 2,1 4,2 6,4l0 4zm-166 46c11,12 34,20 59,20 26,0 48,-8 59,-20l-118 0zm344 0c-11,12 -33,20 -59,20 -25,0 -48,-8 -58,-20l117 0z"/>
   <polygon fill="#FEFEFE" points="672,572 660,570 648,567 633,563 619,560 603,557 587,555 571,552 554,551 538,550 523,551 508,552 494,556 482,560 470,567 460,575 453,587 446,575 438,567 426,560 414,556 400,553 385,551 370,551 353,551 337,553 321,555 304,557 289,560 273,563 259,567 246,570 235,572 327,367 325,371 323,372 322,372 220,588 226,588 236,588 249,588 264,587 281,587 299,586 318,586 337,585 356,585 373,584 389,584 402,583 413,583 420,583 423,582 427,583 430,584 431,588 427,589 426,590 426,591 426,593 427,594 453,594 479,594 481,593 481,591 481,590 479,589 476,588 476,584 480,583 484,582 487,583 494,583 504,583 518,584 534,584 551,585 569,585 588,586 607,586 626,587 643,587 658,588 671,588 680,588 687,588 585,372 583,372 582,371 579,367 "/>
   <path fill="#FEFEFE" fill-rule="nonzero" d="M432 816l0 46 -11 0 0 -25c0,-3 0,-6 0,-6 0,-1 -1,-1 -1,-2 -2,0 -3,0 -6,0l-1 0 0 -6c5,-1 10,-4 13,-7l6 0 0 0z"/>
   <path id="_1" fill="#FEFEFE" fill-rule="nonzero" d="M437 850l12 0c0,2 0,3 0,4 0,0 0,1 1,2 0,0 1,0 1,0 1,0 1,0 2,0 0,-1 0,-2 0,-2 1,-1 1,-2 1,-4l0 -7c-1,1 -2,2 -3,3 -1,1 -2,1 -5,1 -2,0 -3,-1 -5,-2 -2,-1 -3,-2 -3,-4 0,-2 -1,-4 -1,-7l0 -3c0,-3 0,-6 1,-8 0,-1 1,-3 2,-4 1,-1 2,-2 4,-3 2,-1 4,-1 7,-1 3,0 5,0 7,1 2,1 4,2 5,4 1,1 2,3 2,5 0,2 0,5 0,10l0 7c0,5 0,9 0,11 0,1 -1,4 -2,5 -2,2 -3,3 -5,4 -2,1 -4,1 -7,1 -3,0 -6,0 -8,-1 -2,-1 -3,-3 -4,-5 -1,-2 -2,-4 -2,-7l0 0zm12 -15c0,2 0,3 1,4 0,0 1,0 1,0 1,0 2,0 2,0 0,-1 1,-2 1,-4l0 -8c0,-2 -1,-4 -1,-4 0,-1 -1,-1 -2,-1 0,0 -1,0 -1,1 -1,0 -1,1 -1,4l0 8 0 0z"/>
   <path id="_2" fill="#FEFEFE" fill-rule="nonzero" d="M491 836c2,0 3,1 4,3 1,1 1,4 1,9 0,4 0,7 -1,9 -1,2 -2,4 -5,5 -2,1 -4,1 -7,1 -4,0 -7,-1 -9,-2 -2,-1 -4,-2 -4,-4 -1,-2 -1,-5 -1,-10l0 -3 11 0 0 7c0,2 1,3 1,4 0,1 1,1 1,1 1,0 2,0 2,-1 0,-1 0,-3 0,-6l0 -3c0,-1 0,-3 0,-3 -1,-1 -1,-2 -2,-3 -1,0 -2,0 -4,0l0 -6c2,0 4,-1 5,-1 0,0 1,0 1,-1 0,-1 0,-2 0,-3l0 -3c0,-2 0,-3 0,-3 0,-1 -1,-1 -2,-1 0,0 -1,0 -1,1 0,0 -1,1 -1,3l0 4 -11 0 0 -4c0,-4 1,-7 3,-9 2,-1 5,-2 10,-2 5,0 8,1 11,3 2,2 3,5 3,9 0,3 -1,5 -1,6 -1,1 -2,2 -4,3l0 0z"/>
   <path id="_3" fill="#FEFEFE" fill-rule="nonzero" d="M523 836c1,0 2,1 3,3 1,1 2,5 2,10 0,3 -1,6 -1,8 -1,2 -2,3 -4,4 -3,1 -6,2 -9,2 -3,0 -6,-1 -9,-2 -1,-1 -3,-2 -4,-4 -1,-1 -1,-5 -1,-9 0,-3 0,-5 1,-8 0,-1 1,-3 4,-4 -2,-1 -3,-2 -4,-3 0,-2 -1,-4 -1,-6 0,-4 1,-7 4,-9 2,-2 5,-3 10,-3 5,0 9,1 10,3 2,2 3,5 3,9 0,3 0,4 -1,6 0,1 -2,2 -3,3l0 0zm-7 -10c0,-2 0,-3 -1,-3 0,-1 0,-1 -1,-1 -1,0 -1,0 -2,1 0,0 0,1 0,3l0 3c0,2 0,3 0,3 1,1 1,1 2,1 1,0 1,0 1,-1 1,0 1,-1 1,-3l0 -3zm0 19c0,-2 0,-3 -1,-3 0,-1 0,-2 -1,-2 -1,0 -1,1 -2,2 0,0 0,1 0,3l0 6c0,2 0,3 0,4 1,1 1,1 2,1 1,0 1,0 2,-1 0,-1 0,-2 0,-4l0 -6 0 0z"/>
   <path fill="#FEFEFE" fill-rule="nonzero" d="M158 700c2,2 4,2 6,1l12 -9c2,-2 3,-2 4,-2 1,-1 1,-1 1,0l8 9c-2,1 -5,1 -7,3l-10 8c-2,2 -4,2 -6,2 -2,0 -4,-2 -7,-5l0 1c3,5 3,10 -1,13l-10 8c-2,1 -4,3 -4,5l-8 -10c0,0 0,-1 1,-2 0,-1 1,-1 2,-2l12 -9c2,-2 2,-4 0,-6l-19 14 -9 -12 19 -14c-2,-2 -4,-3 -6,-1l-11 9c-2,1 -3,1 -4,2 -1,0 -1,0 -1,0l-8 -10c2,0 4,-1 6,-3l10 -7c5,-4 9,-3 13,2l0 0c-2,-3 -2,-6 -2,-8 0,-2 1,-4 3,-6l11 -8c2,-1 3,-3 4,-5l8 10c0,1 -1,1 -1,2 0,1 -1,2 -3,3l-12 9c-2,1 -2,3 0,6l19 -15 9 12 -19 15 0 0z"/>
   <polygon id="_1_0" fill="#FEFEFE" fill-rule="nonzero" points="139,627 145,637 123,650 149,644 155,655 107,684 101,673 122,660 96,666 90,656 "/>
   <polygon id="_2_1" fill="#FEFEFE" fill-rule="nonzero" points="72,617 82,613 86,620 128,602 134,616 92,634 96,642 86,647 "/>
   <path id="_3_2" fill="#FEFEFE" fill-rule="nonzero" d="M90 567c5,-2 9,-4 11,-4 3,-1 5,0 7,0 2,1 4,3 6,5 2,1 4,4 5,7 1,2 1,6 1,8 0,3 -1,5 -2,7 -2,2 -3,3 -6,5 -2,1 -6,2 -11,4l-9 3c-6,2 -10,3 -12,4 -2,0 -5,0 -7,-1 -2,0 -5,-2 -6,-3 -2,-2 -3,-5 -4,-8 -1,-3 -2,-6 -2,-8 0,-3 1,-5 3,-7 1,-2 3,-4 5,-5 2,-1 6,-2 11,-4l10 -3zm-13 20c-3,1 -4,1 -5,2 0,0 0,1 0,2 0,0 1,1 1,1 1,0 3,0 5,-1l25 -8c3,-1 5,-2 6,-3 0,0 1,-1 0,-2 0,-1 -1,-2 -2,-2 0,0 -2,1 -5,2l-25 9 0 0z"/>
   <path id="_4" fill="#FEFEFE" fill-rule="nonzero" d="M46 520l55 -11 3 13 -38 7 39 -2 2 9 -36 12 37 -7 2 13 -56 11 -3 -19c3,-1 7,-3 11,-4l14 -5 -27 2 -3 -19 0 0z"/>
   <polygon id="_5" fill="#FEFEFE" fill-rule="nonzero" points="99,470 100,482 74,484 100,490 101,503 44,507 44,494 69,493 43,486 42,473 "/>
   <path id="_6" fill="#FEFEFE" fill-rule="nonzero" d="M43 462l0 -15c0,-4 1,-7 1,-9 1,-2 2,-3 3,-5 1,-1 3,-2 4,-2 2,0 5,0 8,0l5 0c4,0 7,1 8,1 2,1 3,3 4,5 1,2 1,4 1,8l0 4 23 1 -1 14 -56 -2 0 0zm9 -14l15 1c0,-1 0,-2 0,-2 0,-1 0,-2 -1,-3 -1,0 -2,-1 -4,-1l-4 0c-3,0 -4,0 -5,1 0,1 0,2 -1,4l0 0z"/>
   <path id="_7" fill="#FEFEFE" fill-rule="nonzero" d="M74 390l-2 14 -10 -1c-3,0 -5,-1 -5,0 -1,0 -2,0 -2,1 0,2 0,3 1,3 1,1 3,1 6,2l26 3c3,0 4,0 5,0 1,0 2,-1 2,-2 0,-1 0,-2 -1,-2 -1,0 -3,-1 -6,-1l-7 -1 2 -15 2 0c6,1 10,2 12,3 3,1 5,3 6,6 1,3 2,7 1,11 0,4 -1,8 -3,11 -3,2 -5,4 -8,4 -2,1 -6,1 -12,0l-17 -2c-4,-1 -6,-1 -9,-2 -2,0 -4,-1 -5,-3 -2,-2 -3,-4 -4,-7 -1,-2 -1,-5 0,-8 0,-5 2,-8 4,-10 1,-3 4,-5 7,-5 2,-1 6,-1 11,0l6 1 0 0z"/>
   <path id="_8" fill="#FEFEFE" fill-rule="nonzero" d="M103 352c4,1 7,2 8,4 2,1 2,3 2,6 0,2 -1,6 -2,10l-5 16 -54 -15 4 -14 19 5 0 -2c1,-5 3,-8 4,-10 1,-2 2,-3 4,-4 3,0 6,0 9,1l11 3zm-6 14l-7 -2c-3,-1 -4,-1 -5,-1 -1,0 -1,2 -2,4l18 5c1,-2 1,-3 1,-4 -1,-1 -2,-2 -5,-2l0 0z"/>
   <path id="_9" fill="#FEFEFE" fill-rule="nonzero" d="M64 330l5 -14 23 9c1,-3 0,-5 -3,-6l-10 -4c-4,-2 -6,-4 -7,-6l5 -12c1,1 3,3 7,4l9 4c6,2 8,7 7,13 3,-6 7,-8 12,-6l9 4c4,2 7,2 9,2l-5 12c-2,1 -5,1 -8,-1l-11 -4c-1,0 -2,0 -3,0 -1,1 -2,2 -3,3l23 9 -6 14 -53 -21 0 0z"/>
   <polygon id="_10" fill="#FEFEFE" fill-rule="nonzero" points="147,285 141,296 118,284 138,304 132,315 81,289 87,278 110,290 91,270 96,260 "/>
   <path id="_11" fill="#FEFEFE" fill-rule="nonzero" d="M168 253l-7 10 -22 -14 18 21 -7 11 -48 -31 7 -10 22 13 -18 -20 7 -11 48 31 0 0zm-65 -27l3 -5c2,2 4,4 5,7 0,3 0,5 -2,8 -1,2 -3,4 -6,4 -2,0 -5,0 -8,-2l3 -5c3,2 5,1 7,0 1,-2 0,-5 -2,-7l0 0z"/>
   <path id="_12" fill="#FEFEFE" fill-rule="nonzero" d="M193 204c3,3 5,5 6,7 0,2 0,5 -1,7 -1,2 -3,4 -7,8l-11 12 -42 -39 20 -21 7 7 -10 10 8 7 1 -2c3,-3 6,-6 7,-7 3,-1 5,-2 7,-1 2,0 4,2 7,4l8 8 0 0zm-11 9l-6 -5c-1,-2 -3,-2 -3,-2 -2,0 -3,0 -4,2l13 13c2,-2 2,-3 3,-3 0,-1 -1,-2 -3,-5z"/>
   <path id="_13" fill="#FEFEFE" fill-rule="nonzero" d="M190 150l43 37 -12 10 -7 -7 -4 3 6 9 -12 9 -31 -48 17 -13 0 0zm17 32c-4,-4 -10,-9 -17,-16 6,9 10,16 13,19l4 -3z"/>
   <path id="_14" fill="#FEFEFE" fill-rule="nonzero" d="M238 144c2,0 4,0 5,1 3,0 5,3 9,8 2,3 4,7 4,9 1,3 0,5 -1,8 -1,3 -3,5 -7,7 -4,3 -7,4 -10,4 -3,1 -5,0 -7,-1 -2,-1 -5,-4 -8,-9l-2 -4 12 -7 5 7c1,2 2,3 3,3 0,1 1,1 2,0 1,-1 1,-1 1,-2 0,-1 -1,-3 -3,-6l-3 -3c-1,-1 -2,-3 -3,-4 -1,0 -2,0 -3,0 -1,0 -3,1 -5,3l-4 -7c2,-2 4,-3 4,-4 1,0 1,-1 1,-2 0,-1 -1,-2 -2,-4l-2 -2c-1,-2 -2,-3 -2,-3 -1,0 -2,0 -3,0 0,1 -1,1 -1,2 1,1 1,2 2,4l3 4 -12 8 -2 -4c-3,-4 -4,-8 -4,-11 1,-3 4,-6 8,-9 6,-4 10,-6 14,-5 4,1 7,3 9,7 2,3 3,5 3,6 0,2 0,4 -1,6l0 0z"/>
   <path id="_15" fill="#FEFEFE" fill-rule="nonzero" d="M283 126c3,6 5,9 6,11 1,2 2,5 1,7 0,3 -1,5 -3,7 -1,2 -3,4 -6,5 -3,2 -5,3 -8,4 -3,0 -5,0 -7,-1 -2,-1 -4,-3 -6,-5 -1,-2 -3,-5 -6,-10l-5 -9c-3,-5 -5,-9 -6,-11 -1,-2 -1,-4 -1,-6 0,-3 1,-5 3,-7 2,-2 4,-4 6,-6 3,-1 6,-2 9,-2 2,-1 4,0 7,1 2,1 4,2 5,4 1,2 4,5 7,10l4 8 0 0zm-22 -8c-1,-2 -2,-4 -3,-5 0,0 -1,0 -2,0 0,1 -1,2 -1,2 0,1 1,3 2,5l13 23c2,3 3,5 4,5 1,1 1,1 2,0 1,0 1,-1 1,-2 0,-1 -1,-2 -2,-6l-14 -22z"/>
   <path id="_16" fill="#FEFEFE" fill-rule="nonzero" d="M280 91l14 -5c4,-2 7,-3 10,-3 2,0 5,1 7,3 2,1 4,4 5,9 2,2 2,5 2,7 -1,1 -3,3 -5,5 3,-1 6,0 8,1 2,1 3,3 4,7l2 5c2,3 2,6 2,8 0,2 -1,4 -2,5 -2,2 -5,3 -11,5l-16 7 -20 -54 0 0zm17 4l4 12c1,0 1,0 2,-1 1,0 2,-1 2,-1 0,-1 0,-3 -1,-7 -1,-1 -2,-2 -3,-3 0,0 -1,-1 -1,-1 -1,0 -2,1 -3,1l0 0zm8 20l5 15c2,0 3,-1 4,-2 0,-1 0,-3 -1,-5l-2 -4c-1,-3 -1,-4 -2,-4 -1,0 -2,0 -4,0l0 0z"/>
   <polygon id="_17" fill="#FEFEFE" fill-rule="nonzero" points="369,121 357,124 350,100 350,126 337,130 322,75 334,72 341,96 342,69 354,66 "/>
   <path id="_18" fill="#FEFEFE" fill-rule="nonzero" d="M407 113l-12 3 -5 -26 -3 27 -13 2 -10 -56 13 -2 4 26 3 -27 13 -2 10 55zm-25 -65l6 -1c0,3 0,5 -2,7 -1,3 -3,4 -6,5 -3,0 -6,0 -8,-2 -2,-2 -3,-4 -4,-7l6 -1c1,3 3,4 5,4 2,0 3,-2 3,-5l0 0z"/>
   <path id="_19" fill="#FEFEFE" fill-rule="nonzero" d="M478 83c0,4 0,7 0,8 0,2 -2,4 -3,6 -3,3 -7,5 -14,5l-3 0 0 9 -15 0 0 -9 -2 0c-7,0 -12,-1 -14,-4 -2,-2 -3,-4 -3,-6 0,-1 -1,-4 -1,-8l0 -1c0,-4 0,-6 1,-8 0,-2 1,-4 2,-6 3,-3 7,-4 14,-5 1,0 2,0 3,0l-1 -10 15 0 0 10c2,0 2,0 3,0 7,0 12,1 14,4 2,2 3,4 4,6 0,2 0,4 0,8l0 1zm-14 4l-1 -8c0,-2 0,-3 -1,-4 -1,-1 -2,-2 -3,-2l-1 0 0 20 1 0c1,0 2,-1 3,-2 1,-1 2,-2 2,-4l0 0zm-21 6l0 -20 -1 0c-1,0 -2,1 -3,2 -1,1 -1,3 -1,5l0 7c0,2 0,3 1,5 1,1 2,1 3,1l1 0 0 0z"/>
   <path id="_20" fill="#FEFEFE" fill-rule="nonzero" d="M515 59l1 58 -15 -2 1 -10 -5 -1 -2 10 -15 -2 14 -55 21 2 0 0zm-12 35c0,-6 0,-14 1,-23 -3,10 -5,18 -6,23l5 0 0 0z"/>
   <path id="_21" fill="#FEFEFE" fill-rule="nonzero" d="M531 62l15 3c4,1 7,2 9,3 2,1 3,3 4,4 1,2 1,3 1,5 0,2 0,4 -1,8l-1 5c-1,3 -2,5 -3,7 -1,1 -2,3 -5,3 -2,0 -5,0 -8,0l-3 -2 -6 23 -14 -3 12 -56 0 0zm13 13l-3 14c0,0 0,0 1,0 1,1 2,1 3,0 0,0 1,-2 1,-4l1 -5c1,-1 1,-3 0,-3 0,-1 -1,-2 -3,-2l0 0z"/>
   <path id="_22" fill="#FEFEFE" fill-rule="nonzero" d="M617 89l-20 52 -12 -4 14 -36 -19 34 -9 -3 9 -37 -14 35 -12 -5 21 -53 17 7c0,3 -1,8 -2,12l-3 14 12 -23 18 7 0 0z"/>
   <path id="_23" fill="#FEFEFE" fill-rule="nonzero" d="M650 106l-18 54 -13 -7 3 -9 -4 -3 -5 9 -14 -7 32 -47 19 10zm-23 29c2,-6 5,-14 9,-23 -7,9 -11,16 -14,20l5 3z"/>
   <polygon id="_24" fill="#FEFEFE" fill-rule="nonzero" points="659,191 651,185 656,177 634,161 668,115 679,123 653,161 657,163 683,126 695,135 669,171 671,174 "/>
   <polygon id="_25" fill="#FEFEFE" fill-rule="nonzero" points="705,142 724,159 716,167 709,161 702,168 709,175 702,183 695,177 687,186 695,193 687,202 668,185 "/>
   <path id="_26" fill="#FEFEFE" fill-rule="nonzero" d="M732 165l11 11c3,3 5,6 6,8 1,3 1,5 1,8 -1,2 -3,5 -7,8 -2,3 -4,4 -6,4 -2,1 -4,0 -6,-2 2,3 2,5 2,7 -1,3 -2,5 -5,8l-4 3c-3,3 -5,4 -7,5 -2,0 -4,0 -5,-1 -3,0 -5,-3 -9,-7l-12 -13 41 -39 0 0zm3 18l-9 8c1,1 1,1 1,1 1,1 2,2 3,2 1,0 2,-2 5,-4 1,-1 2,-2 2,-3 0,0 0,-2 0,-2 0,-1 -1,-1 -2,-2l0 0zm-15 14l-12 11c1,2 3,2 4,2 1,0 2,0 3,-2l4 -3c2,-2 3,-3 3,-4 0,-1 -1,-2 -2,-4l0 0z"/>
   <polygon id="_27" fill="#FEFEFE" fill-rule="nonzero" points="781,221 772,228 767,221 731,249 722,238 758,209 752,203 761,196 "/>
   <polygon id="_28" fill="#FEFEFE" fill-rule="nonzero" points="757,286 750,276 772,262 746,270 739,259 787,228 793,239 772,252 798,246 804,256 "/>
   <path id="_29" fill="#FEFEFE" fill-rule="nonzero" d="M788 300c-1,-1 -3,-2 -5,-3 -2,-1 -3,-3 -4,-4 -1,-3 -1,-7 0,-9 1,-2 3,-4 7,-6l24 -12 7 13 -23 12c-2,1 -3,1 -4,2 0,1 -1,2 0,2 1,2 3,2 6,1l23 -12 7 13 -51 26 -6 -13 19 -10z"/>
   <polygon id="_30" fill="#FEFEFE" fill-rule="nonzero" points="843,343 789,360 784,347 806,339 805,335 782,342 778,328 832,310 836,325 817,331 818,335 838,329 "/>
   <polygon id="_31" fill="#FEFEFE" fill-rule="nonzero" points="798,398 795,386 820,380 793,379 791,366 846,353 849,365 824,371 851,373 853,385 "/>
   <path id="_32" fill="#FEFEFE" fill-rule="nonzero" d="M803 437l-1 -12 26 -3 -27 -5 -2 -13 57 -7 1 12 -25 3 26 5 2 13 -57 7 0 0zm68 -21l0 6c-3,0 -6,-1 -8,-2 -2,-2 -3,-4 -4,-7 0,-3 1,-5 2,-7 2,-3 4,-4 7,-4l1 6c-3,1 -4,2 -4,4 0,3 2,4 6,4l0 0z"/>
   <path id="_33" fill="#FEFEFE" fill-rule="nonzero" d="M861 457l0 15 -24 -1c0,3 1,4 4,5l11 0c5,0 7,2 9,3l-1 14c-1,-2 -4,-3 -9,-3l-9 0c-6,0 -9,-3 -10,-10 -1,7 -4,10 -11,9l-8 0c-5,0 -8,1 -10,2l1 -13c1,-2 4,-3 8,-3l11 0c1,0 2,0 4,-1 1,-1 1,-2 1,-3l-24 -1 0 -14 57 1 0 0z"/>
   <path id="_34" fill="#FEFEFE" fill-rule="nonzero" d="M821 531c-5,-1 -10,-2 -12,-2 -2,-1 -4,-2 -6,-4 -1,-1 -3,-3 -3,-6 -1,-3 -1,-5 0,-9 0,-2 1,-5 2,-8 1,-2 3,-3 5,-5 2,-1 5,-1 7,-1 3,0 7,0 13,1l9 2c6,1 10,1 12,2 2,1 4,2 6,3 2,2 3,4 4,7 0,2 1,5 0,8 0,4 -1,6 -3,8 -1,2 -3,4 -5,5 -2,1 -5,2 -7,2 -3,0 -6,-1 -12,-2l-10 -1zm21 -12c3,0 4,1 5,0 1,0 1,0 1,-1 0,-1 0,-2 0,-2 -1,0 -2,-1 -5,-1l-26 -4c-4,-1 -6,-1 -7,-1 -1,0 -1,1 -1,2 0,1 0,1 1,2 1,0 3,1 6,1l26 4z"/>
   <path id="_35" fill="#FEFEFE" fill-rule="nonzero" d="M789 568l3 -14 44 11 1 -5 -31 -7c-4,-1 -6,-2 -8,-4 -2,-2 -3,-4 -3,-6 1,-2 1,-5 3,-10l0 -3 10 3c-1,1 -1,3 -1,4 1,1 2,1 4,2l41 10 -8 33 -55 -14 0 0z"/>
   <polygon id="_36" fill="#FEFEFE" fill-rule="nonzero" points="840,592 832,616 821,612 824,602 814,599 811,607 801,604 804,595 792,591 789,601 778,598 787,573 "/>
   <path id="_37" fill="#FEFEFE" fill-rule="nonzero" d="M749 635l4 -9 9 4 11 -21 -9 -5 5 -8 19 9 -2 3c4,3 9,7 15,11 6,5 14,9 21,13l2 1 -15 29 -39 -20 -2 3 -19 -10 0 0zm27 -6l30 15 2 -4 0 0c-10,-5 -19,-11 -29,-19l-3 8z"/>
   <path id="_38" fill="#FEFEFE" fill-rule="nonzero" d="M766 671c1,-2 1,-4 -1,-6l-12 -9c-2,-1 -3,-2 -3,-2 0,-1 -1,-2 -1,-2l8 -10c0,2 2,3 4,5l11 8c2,1 3,3 3,5 1,2 0,5 -2,8l1 0c4,-5 8,-6 13,-3l9 8c3,1 5,2 7,2l-7 10c-1,0 -1,0 -2,0 -1,0 -2,-1 -4,-2l-11 -8c-2,-2 -4,-1 -6,1l19 14 -8 12 -20 -14c-1,3 -1,5 1,6l11 9c2,1 3,2 3,3 1,0 1,1 1,1l-7 10c-1,-2 -2,-3 -4,-5l-10 -7c-5,-3 -6,-8 -2,-14l0 0c-3,3 -5,5 -7,5 -2,1 -4,0 -6,-2l-11 -7c-2,-2 -4,-3 -6,-3l7 -10c0,0 1,0 1,0 1,0 2,1 4,2l12 9c2,1 5,1 6,-2l-20 -14 9 -12 20 14 0 0z"/>
   <path fill="#FEFEFE" fill-rule="nonzero" stroke="#FEFEFE" strokeWidth="1.22296" d="M781 774l0 172 -650 0 0 -172c-41,-42 -73,-91 -96,-146 -22,-53 -34,-111 -34,-172 0,-251 204,-455 455,-455 125,0 239,51 321,133 83,83 134,196 134,322 0,61 -12,119 -34,172 -23,55 -56,104 -96,146l0 0zm-12 -3l2 -4c40,-41 73,-89 95,-143 21,-52 33,-109 33,-168 0,-122 -50,-233 -130,-314 -80,-80 -191,-129 -313,-129 -244,0 -443,198 -443,443 0,59 11,116 33,168 22,54 55,102 95,143l1 4 0 163 627 0 0 -163z"/>
  </g>
 </g>
</a>
</svg>
